Coordinates
version=1
nRows=6
nColumns=36
inDegrees=yes

Units are S.I. units (second, meters, Newtons, ...)
If the header above contains a line with 'inDegrees', this indicates whether rotational values are in degrees (yes) or radians (no).

endheader
time	pelvis_tilt	pelvis_list	pelvis_rotation	pelvis_tx	pelvis_ty	pelvis_tz	hip_flexion_r	hip_adduction_r	hip_rotation_r	knee_angle_r	knee_angle_r_beta	ankle_angle_r	subtalar_angle_r	mtp_angle_r	hip_flexion_l	hip_adduction_l	hip_rotation_l	knee_angle_l	knee_angle_l_beta	ankle_angle_l	subtalar_angle_l	mtp_angle_l	lumbar_extension	lumbar_bending	lumbar_rotation	arm_flex_r	arm_add_r	arm_rot_r	elbow_flex_r	pro_sup_r	arm_flex_l	arm_add_l	arm_rot_l	elbow_flex_l	pro_sup_l
      5.98333330	    -16.83197398	     15.16088741	     19.22959372	      0.66165223	      0.72667372	     -0.27920920	     90.68791538	    -25.34043363	     16.34842691	     41.08272671	      0.71702885	    -11.40068842	      7.52493001	     -7.49999987	     73.09089562	     21.50734340	    -12.64888622	     86.08122372	      1.50240078	     25.77230377	    -10.24576565	     -7.49999987	    -45.45485938	     -7.83341139	    -24.11450049	     87.28414478	      0.62690278	     48.32408204	    119.71356743	     58.12515173	    102.47744186	    -27.29692626	     69.21997260	    134.21529992	     56.46051801
      6.00000000	    -16.99086797	     15.02225131	     19.12768059	      0.66204708	      0.73057713	     -0.27962762	     90.50705679	    -25.35359102	     15.90650890	     40.66870350	      0.70980278	    -11.29397397	      8.19229306	     -7.49999987	     72.99341751	     21.41571592	    -12.41098248	     85.79147119	      1.49734364	     25.82979026	    -10.00919569	     -7.49999987	    -45.22104051	     -7.71363096	    -23.99370418	     87.07346337	      0.41772746	     46.67581085	    119.85887670	     58.27522397	    102.47211357	    -26.60507488	     68.92485273	    135.31405889	     56.80885586
      6.01666670	    -17.04784775	     15.15179214	     19.06661852	      0.66248892	      0.73771368	     -0.27931333	     90.14342981	    -25.51908845	     15.54000544	     40.12989013	      0.70039871	    -11.18522617	      8.87490767	     -7.49999987	     72.60696542	     21.58937570	    -12.30584020	     85.25180552	      1.48792470	     25.89984459	     -9.82556464	     -7.49999987	    -45.27138597	     -7.76015135	    -24.01873281	     86.57081200	      0.52678952	     47.20788969	    120.59495684	     58.29696966	    101.81814745	    -26.06476101	     69.20860354	    135.19185543	     56.74569580
      6.03333330	    -17.21181846	     15.22852439	     18.90163184	      0.66264441	      0.73782030	     -0.27885659	     89.88756179	    -25.54690164	     15.18004630	     39.65244032	      0.69206564	    -10.98769435	      9.61874268	     -7.49999987	     72.37728996	     21.67272256	    -12.20497815	     84.76667307	      1.47945754	     25.94920276	     -9.63836434	     -7.49999987	    -45.09526609	     -7.86259311	    -23.83736402	     86.59785560	      0.25336465	     47.38010744	    121.40645282	     58.43715023	    101.74255658	    -25.95431756	     67.69560896	    134.33074571	     56.81388591
      6.05000000	    -17.28144577	     15.22415421	     18.70103407	      0.66284591	      0.74218923	     -0.27909845	     89.40889138	    -25.62161527	     14.57952283	     39.07371024	      0.68196489	    -10.92933987	     10.35531904	     -7.49999987	     72.00617238	     21.78461064	    -11.94912841	     84.19015208	      1.46939535	     25.99659403	     -9.53106276	     -7.49999987	    -44.94297606	     -7.69371329	    -23.50195706	     86.24048029	     -0.16482011	     46.57469076	    121.61927686	     58.64716436	    101.16461259	    -25.32902935	     67.15156007	    134.32392110	     57.17912746
      6.06666670	    -17.39559200	     15.36910020	     18.67461019	      0.65768226	      0.74483895	     -0.28280350	     89.06845430	    -25.89480765	     14.06652410	     38.57699537	      0.67329558	    -10.90867731	     11.16336354	     -7.49999987	     71.68562264	     22.06976599	    -11.88269216	     83.46908280	      1.45681032	     25.83012416	     -9.71490267	     -7.49999987	    -44.97976169	     -7.80292032	    -23.18215711	     86.11654210	     -1.46535620	     45.51998003	    123.13353174	     58.58241671	    101.88598484	    -23.74929047	     67.90569369	    132.77603466	     57.24698089
